<?xml version="1.0" encoding="UTF-8" standalone="no"?>
<!-- Created with Inkscape (http://www.inkscape.org/) -->

<svg
   xmlns:dc="http://purl.org/dc/elements/1.1/"
   xmlns:cc="http://creativecommons.org/ns#"
   xmlns:rdf="http://www.w3.org/1999/02/22-rdf-syntax-ns#"
   xmlns:svg="http://www.w3.org/2000/svg"
   xmlns="http://www.w3.org/2000/svg"
   xmlns:sodipodi="http://sodipodi.sourceforge.net/DTD/sodipodi-0.dtd"
   xmlns:inkscape="http://www.inkscape.org/namespaces/inkscape"
   width="3.5in"
   height="2in"
   viewBox="0 0 88.900001 50.800001"
   version="1.1"
   id="svg8"
   inkscape:export-filename="C:\Users\Alyssa\deez-io-card.png"
   inkscape:export-xdpi="24.402399"
   inkscape:export-ydpi="24.402399"
   inkscape:version="0.92.2 (5c3e80d, 2017-08-06)"
   sodipodi:docname="deez-io-card.svg">
  <defs
     id="defs2" />
  <sodipodi:namedview
     id="base"
     pagecolor="#ffffff"
     bordercolor="#666666"
     borderopacity="1.0"
     inkscape:pageopacity="0.0"
     inkscape:pageshadow="2"
     inkscape:zoom="1.979899"
     inkscape:cx="82.822924"
     inkscape:cy="35.27811"
     inkscape:document-units="mm"
     inkscape:current-layer="layer1"
     showgrid="false"
     units="in"
     showguides="true"
     inkscape:guide-bbox="true"
     inkscape:window-width="1920"
     inkscape:window-height="1001"
     inkscape:window-x="-9"
     inkscape:window-y="-9"
     inkscape:window-maximized="1">
    <sodipodi:guide
       position="88.867119,37.952274"
       orientation="1,0"
       id="guide817"
       inkscape:locked="false" />
    <sodipodi:guide
       position="0,34.878674"
       orientation="1,0"
       id="guide819"
       inkscape:locked="false" />
    <sodipodi:guide
       position="39.82316,50.781211"
       orientation="0,1"
       id="guide821"
       inkscape:locked="false" />
    <sodipodi:guide
       position="37.685004,0"
       orientation="0,1"
       id="guide823"
       inkscape:locked="false" />
    <sodipodi:guide
       position="44.953161,47.442331"
       orientation="1,0"
       id="guide859"
       inkscape:locked="false" />
    <sodipodi:guide
       position="85.125346,25.123336"
       orientation="0,1"
       id="guide861"
       inkscape:locked="false" />
  </sodipodi:namedview>
  <metadata
     id="metadata5">
    <rdf:RDF>
      <cc:Work
         rdf:about="">
        <dc:format>image/svg+xml</dc:format>
        <dc:type
           rdf:resource="http://purl.org/dc/dcmitype/StillImage" />
        <dc:title></dc:title>
      </cc:Work>
    </rdf:RDF>
  </metadata>
  <g
     inkscape:label="Layer 1"
     inkscape:groupmode="layer"
     id="layer1"
     transform="translate(0,-246.19998)">
    <rect
       style="fill:#0068ad;fill-opacity:1;stroke-width:0.26458332"
       id="rect815"
       width="88.867119"
       height="50.7812"
       x="-1.2099399e-006"
       y="246.21878" />
    <g
       id="g857"
       transform="matrix(0.0440952,0,0,0.0440952,27.313272,250.61599)">
      <g
         transform="translate(0,80)"
         inkscape:label="Layer 1"
         id="layer1-0" />
      <g
         transform="translate(2.6732674,47.920792)"
         id="g1458">
        <g
           transform="matrix(1.1297393,0,0,1.1297393,-77.269955,-90.868065)"
           id="g5704">
          <path
             inkscape:export-ydpi="7.6390591"
             inkscape:export-xdpi="7.6390591"
             transform="matrix(1.885605,1.068374,-1.068374,1.885605,435.37338,-586.96849)"
             d="M 133.66337,537.32672 53.169493,395.16204 136.04077,254.36996 l 163.36516,1.3726 80.49388,142.16467 -82.87128,140.79208 z"
             inkscape:randomized="0"
             inkscape:rounded="0"
             inkscape:flatsided="true"
             sodipodi:arg2="2.6263957"
             sodipodi:arg1="2.1027969"
             sodipodi:r2="141.48337"
             sodipodi:r1="163.37093"
             sodipodi:cy="396.53464"
             sodipodi:cx="216.53465"
             sodipodi:sides="6"
             id="path4547"
             style="fill:#efefef;fill-opacity:1"
             sodipodi:type="star" />
          <path
             inkscape:export-ydpi="7.6390591"
             inkscape:export-xdpi="7.6390591"
             inkscape:connector-curvature="0"
             id="path4526"
             d="m 279.70981,384.04443 0.27487,-169.30119 12.52346,7.0906 c 6.88794,3.89982 53.53477,31.26448 103.65967,60.81031 50.12493,29.54583 99.86597,58.76157 110.53568,64.92392 l 19.39948,11.20424 -28.20645,16.62219 -28.20646,16.62215 -11.62238,-6.54637 c -6.3923,-3.60048 -33.96447,-19.83642 -61.2715,-36.07982 -27.30698,-16.2434 -54.1315,-32.04668 -59.61002,-35.11841 l -9.96092,-5.58492 -0.0867,136.33914 c -0.0479,74.98651 -0.1257,136.40453 -0.17359,136.48448 -0.0477,0.08 -10.76148,-6.22453 -23.80839,-14.00993 l -23.72165,-14.15526 z m 50.29587,63.22511 c -0.0381,-73.35843 -0.0353,-133.58141 0.009,-133.82891 0.0418,-0.24756 10.66757,5.87814 23.61269,13.61248 l 23.53666,14.06244 0.50531,41.67071 c 1.15098,94.91374 1.50547,115.31945 2.00073,115.15847 0.43434,-0.14131 49.80805,-28.16517 234.53754,-133.12088 l 17.02211,-9.67131 -2.30213,31.14264 -2.30213,31.14258 -2.75248,1.57147 c -10.83884,6.18825 -293.39291,161.9055 -293.56999,161.78819 -0.12397,-0.0819 -0.25626,-60.16947 -0.29462,-133.52788 z m 51.37211,23.70594 c -0.20481,-12.59795 -0.25114,-23.12148 -0.10316,-23.38562 0.25393,-0.4528 32.14886,-19.37944 113.84734,-67.55757 19.50196,-11.5004 35.42135,-21.05526 35.37645,-21.23295 -0.0993,-0.39182 -208.97969,-123.76256 -232.44109,-137.28618 -9.15021,-5.27435 -16.54282,-9.74509 -16.428,-9.93491 0.11508,-0.18985 11.63843,-7.80749 25.60809,-16.92816 l 25.39946,-16.58299 17.9804,10.34745 c 23.18334,13.34163 278.41843,164.17842 278.52515,164.60049 0.0442,0.17576 -55.08613,31.6269 -122.51243,69.89119 -67.42629,38.26431 -123.10769,69.88718 -123.73649,70.27306 -1.08217,0.66406 -1.16318,-0.52285 -1.5157,-22.20381 z"
             style="fill:#3e3e3e;fill-opacity:1;stroke-width:0.4954989" />
        </g>
      </g>
      <g
         transform="translate(0,80)"
         inkscape:label="Layer 2"
         id="layer2" />
    </g>
    <text
       xml:space="preserve"
       style="font-style:normal;font-variant:normal;font-weight:normal;font-stretch:normal;font-size:5.84049177px;line-height:1.25;font-family:Roboto;-inkscape-font-specification:Roboto;letter-spacing:0px;word-spacing:0px;fill:#efefef;fill-opacity:1;stroke:none;stroke-width:0.14601229"
       x="35.141479"
       y="292.90594"
       id="text865"><tspan
         sodipodi:role="line"
         id="tspan863"
         x="35.141479"
         y="292.90594"
         style="font-style:normal;font-variant:normal;font-weight:normal;font-stretch:normal;line-height:6;font-family:Roboto;-inkscape-font-specification:Roboto;letter-spacing:0.00438037px;word-spacing:0.00146012px;fill:#efefef;fill-opacity:1;stroke-width:0.14601229"
         dx="0.044148598">deez.io</tspan></text>
  </g>
</svg>
