<?xml version="1.0" encoding="UTF-8" standalone="no"?>
<!-- Created with Inkscape (http://www.inkscape.org/) -->

<svg
   xmlns:dc="http://purl.org/dc/elements/1.1/"
   xmlns:cc="http://creativecommons.org/ns#"
   xmlns:rdf="http://www.w3.org/1999/02/22-rdf-syntax-ns#"
   xmlns:svg="http://www.w3.org/2000/svg"
   xmlns="http://www.w3.org/2000/svg"
   xmlns:sodipodi="http://sodipodi.sourceforge.net/DTD/sodipodi-0.dtd"
   xmlns:inkscape="http://www.inkscape.org/namespaces/inkscape"
   version="1.1"
   id="svg3699"
   width="800"
   height="800"
   viewBox="0 0 799.99997 800"
   sodipodi:docname="DeezNuts.svg"
   inkscape:export-filename="C:\Users\Alyssa\Downloads\DeezNuts_favicon.png"
   inkscape:export-xdpi="24.402369"
   inkscape:export-ydpi="24.402369"
   inkscape:version="0.92.2 (5c3e80d, 2017-08-06)">
  <metadata
     id="metadata3705">
    <rdf:RDF>
      <cc:Work
         rdf:about="">
        <dc:format>image/svg+xml</dc:format>
        <dc:type
           rdf:resource="http://purl.org/dc/dcmitype/StillImage" />
        <dc:title></dc:title>
      </cc:Work>
    </rdf:RDF>
  </metadata>
  <defs
     id="defs3703" />
  <sodipodi:namedview
     pagecolor="#ffffff"
     bordercolor="#666666"
     borderopacity="1"
     objecttolerance="10"
     gridtolerance="10"
     guidetolerance="10"
     inkscape:pageopacity="0"
     inkscape:pageshadow="2"
     inkscape:window-width="1920"
     inkscape:window-height="1001"
     id="namedview3701"
     showgrid="true"
     showguides="true"
     inkscape:guide-bbox="true"
     inkscape:zoom="1.1222222"
     inkscape:cx="224.06203"
     inkscape:cy="439.86171"
     inkscape:window-x="-9"
     inkscape:window-y="-9"
     inkscape:window-maximized="1"
     inkscape:current-layer="g1458"
     units="px"
     inkscape:pagecheckerboard="true">
    <inkscape:grid
       type="xygrid"
       id="grid5706" />
    <sodipodi:guide
       position="399.99999,530"
       orientation="1,0"
       id="guide5708"
       inkscape:locked="false" />
    <sodipodi:guide
       position="649.99998,400"
       orientation="0,1"
       id="guide5710"
       inkscape:locked="false" />
  </sodipodi:namedview>
  <g
     inkscape:groupmode="layer"
     id="layer1"
     inkscape:label="Layer 1"
     transform="translate(0,80)" />
  <g
     id="g1458"
     transform="translate(2.6732674,47.920792)">
    <g
       id="g5704"
       transform="matrix(1.1297393,0,0,1.1297393,-77.269955,-90.868065)">
      <path
         sodipodi:type="star"
         style="fill:#efefef;fill-opacity:1"
         id="path4547"
         sodipodi:sides="6"
         sodipodi:cx="216.53465"
         sodipodi:cy="396.53464"
         sodipodi:r1="163.37093"
         sodipodi:r2="141.48337"
         sodipodi:arg1="2.1027969"
         sodipodi:arg2="2.6263957"
         inkscape:flatsided="true"
         inkscape:rounded="0"
         inkscape:randomized="0"
         d="M 133.66337,537.32672 53.169493,395.16204 136.04077,254.36996 l 163.36516,1.3726 80.49388,142.16467 -82.87128,140.79208 z"
         transform="matrix(1.885605,1.068374,-1.068374,1.885605,435.37338,-586.96849)"
         inkscape:export-xdpi="7.6390591"
         inkscape:export-ydpi="7.6390591" />
      <path
         style="fill:#3e3e3e;fill-opacity:1;stroke-width:0.4954989"
         d="m 279.70981,384.04443 0.27487,-169.30119 12.52346,7.0906 c 6.88794,3.89982 53.53477,31.26448 103.65967,60.81031 50.12493,29.54583 99.86597,58.76157 110.53568,64.92392 l 19.39948,11.20424 -28.20645,16.62219 -28.20646,16.62215 -11.62238,-6.54637 c -6.3923,-3.60048 -33.96447,-19.83642 -61.2715,-36.07982 -27.30698,-16.2434 -54.1315,-32.04668 -59.61002,-35.11841 l -9.96092,-5.58492 -0.0867,136.33914 c -0.0479,74.98651 -0.1257,136.40453 -0.17359,136.48448 -0.0477,0.08 -10.76148,-6.22453 -23.80839,-14.00993 l -23.72165,-14.15526 z m 50.29587,63.22511 c -0.0381,-73.35843 -0.0353,-133.58141 0.009,-133.82891 0.0418,-0.24756 10.66757,5.87814 23.61269,13.61248 l 23.53666,14.06244 0.50531,41.67071 c 1.15098,94.91374 1.50547,115.31945 2.00073,115.15847 0.43434,-0.14131 49.80805,-28.16517 234.53754,-133.12088 l 17.02211,-9.67131 -2.30213,31.14264 -2.30213,31.14258 -2.75248,1.57147 c -10.83884,6.18825 -293.39291,161.9055 -293.56999,161.78819 -0.12397,-0.0819 -0.25626,-60.16947 -0.29462,-133.52788 z m 51.37211,23.70594 c -0.20481,-12.59795 -0.25114,-23.12148 -0.10316,-23.38562 0.25393,-0.4528 32.14886,-19.37944 113.84734,-67.55757 19.50196,-11.5004 35.42135,-21.05526 35.37645,-21.23295 -0.0993,-0.39182 -208.97969,-123.76256 -232.44109,-137.28618 -9.15021,-5.27435 -16.54282,-9.74509 -16.428,-9.93491 0.11508,-0.18985 11.63843,-7.80749 25.60809,-16.92816 l 25.39946,-16.58299 17.9804,10.34745 c 23.18334,13.34163 278.41843,164.17842 278.52515,164.60049 0.0442,0.17576 -55.08613,31.6269 -122.51243,69.89119 -67.42629,38.26431 -123.10769,69.88718 -123.73649,70.27306 -1.08217,0.66406 -1.16318,-0.52285 -1.5157,-22.20381 z"
         id="path4526"
         inkscape:connector-curvature="0"
         inkscape:export-xdpi="7.6390591"
         inkscape:export-ydpi="7.6390591" />
    </g>
  </g>
  <g
     inkscape:groupmode="layer"
     id="layer2"
     inkscape:label="Layer 2"
     transform="translate(0,80)" />
</svg>
